<?xml version="1.0" encoding="utf-8"?>
<!-- Generator: Adobe Illustrator 22.1.0, SVG Export Plug-In . SVG Version: 6.00 Build 0)  -->
<svg version="1.1" id="Layer_1" xmlns="http://www.w3.org/2000/svg" xmlns:xlink="http://www.w3.org/1999/xlink" x="0px" y="0px"
	 viewBox="0 0 300 300" style="enable-background:new 0 0 300 300;" xml:space="preserve">
<style type="text/css">
	.st0{display:none;}
	.st1{display:inline;fill:#605d61;stroke:#BE5700;stroke-width:7;stroke-miterlimit:10;}
	.st2{display:inline;fill:#605d61;stroke:#BE5700;stroke-width:6;stroke-miterlimit:10;}
	.st3{display:inline;fill:#605d61;}
	.st4{display:inline;}
	.st5{fill:#605d61;}
	.st6{display:inline;fill:#BE5700;stroke:#BE5700;stroke-width:7;stroke-miterlimit:10;}
	.st7{display:inline;fill:#BE5700;stroke:#BE5700;stroke-width:6;stroke-miterlimit:10;}
	.st8{display:inline;fill:#BE5700;}
	.st9{fill:#BE5700;}
</style>
<g id="Layer_1_copy">
</g>
<g id="icon_x5F_minus">
	<g>
		<g class="st0">
			<path class="st1" d="M98.1,294.9c-5.5-1.6-10.2-4.3-13.1-9.5c-5.2-9.4-1-21.5,8.9-25.5c2.1-0.8,2.6-1.8,2.6-3.8
				c-0.1-5.2,0.1-10.4-0.1-15.6c-0.1-3.4,0.7-6.1,3.4-8.2c1.3-1,2.5-2.3,3.8-3.4c-0.1-0.3-0.1-0.5-0.2-0.8c-0.9,0-1.9,0-2.8,0
				c-9.7,0-19.4-0.1-29.1,0c-7.4,0.1-14.2-0.9-19.2-8.1c-2.1,2.3-3.9,4.3-5.7,6.4c-0.4,0.6-0.5,1.6-0.6,2.4c-0.1,0.9,0.1,1.9,0,2.8
				c-0.6,4.1,0.4,6.7,4.8,8.8c7.6,3.6,10.6,12.9,8.1,20.8c-2.5,8-10.3,13.3-18.7,12.7c-8.4-0.6-15.6-7.1-16.7-15.1
				c-1.2-8.6,3.2-16.8,11.1-19.8c2-0.7,2.7-1.8,2.4-3.6c-1.6-8.8,1.5-15.7,8.7-20.7c3.3-2.4,4-5.5,4-9.5c-0.2-32-0.1-64.2,0-96.3
				c0-2.2-0.5-3.7-2.2-5.2c-3-2.8-5.9-5.5-8.6-8.6c-1.2-1.5-2.1-3.5-2.3-5.5c-0.3-3.3-0.2-6.7,0-10.2c0.1-1.8-0.5-2.6-2.2-3.2
				c-7.2-2.8-11.7-9.7-11.5-17.2C23.1,51.4,28,44.6,35,42.2c9.2-3.2,19.5,1.5,23,10.5c3.6,9.2-0.7,19.7-10,23.4
				c-2.1,0.8-2.8,1.8-2.6,3.8c0.2,1.9,0.2,3.8,0,5.6c-0.4,3.3,1.1,5.3,3.8,7.1c0.1-0.9,0.2-1.6,0.2-2.3C49.6,79,56.7,71.9,68,71.9
				c14.3,0,28.7,0,43,0c1,0,2,0,3,0c0.8-4.5,0.5-8.1-3.2-11.1c-3.7-3.1-6.9-6.9-10.5-10.3c-2.1-2-3.2-4.1-2.8-6.9
				c0.2-1.8-0.4-2.6-2.2-3.3C86.9,37.1,82.2,28.5,84,19.8c1.7-8.3,9.2-14.5,17.7-14.6c8.7-0.1,16.4,6.3,18,14.9
				c1.7,8.5-3.1,16.9-11.3,20.2c-2.5,1-2.9,2.7-0.9,4.6c4,4.1,8.2,8.4,12.4,12.3c2.5,2.3,3.6,4.9,3.4,8.2c-0.2,2,0,3.9,0,6.4
				c1.1,0,2.2,0,3.1,0c10.1,0,20.2,0.1,30.3,0c6.3-0.1,11.9,1.3,16.6,6.9c2.6-2.7,5-5.3,7.5-7.9c2.8-2.9,5.6-5.8,8.6-8.6
				c1.6-1.5,2.3-2.9,2-5c-0.1-0.4-0.1-0.9,0-1.5c0.5-4.1-0.2-6.9-4.9-9c-7.5-3.4-10.6-12.9-8.1-20.8c2.5-8.1,10.2-13.2,18.9-12.7
				c8.1,0.5,14.9,6.8,16.4,15s-3,16.6-10.8,19.7c-2.1,0.8-2.6,1.8-2.6,3.8c-0.2,14.8,2,9.7-8.5,20.5c-4.5,4.6-9.1,9-13.6,13.7
				c-0.8,0.9-1.5,2.4-1.5,3.6c-0.2,3.9-0.1,7.9-0.1,12.3c1.1,0,2.1,0,3.1,0c7.9,0,15.9-0.1,23.8,0c12.3,0.2,22.9,4.6,32,13
				c0.4,0.4,0.8,0.7,1.5,1.2c6.1-5.5,11.9-11.2,17.6-16.9c0.4-0.4,0.5-1.1,0.5-1.8c0-3.4,0-6.7,0-10.3c-5.2-1.7-9.3-4.7-11.7-9.5
				c-4.7-9.2-0.8-20.3,8.7-24.9c8.9-4.3,20,0,24.2,9.2s-0.1,20.1-9.5,24.1c-2.2,0.9-2.6,2.1-2.6,4.1c-0.2,15.2,2,10.2-8.8,21.2
				c-3.9,4-8,8-11.9,11.9c13.2,24.5,9.5,45.9-11,65c2.4,2.3,5,4.4,7.2,6.9c1.2,1.5,1.7,3.6,2.4,5.4c0.2,0.5,0,1.1,0,1.7
				c0.1,4.1-0.9,8.7,0.5,12.3c1.5,3.5,5.2,6.4,8.4,8.9c6.5,5,9.3,11.2,8,19.4c-0.2,1.1,0,2.3,0,3.4c5.3,1.8,9.4,4.8,11.9,9.9
				c4.5,9.3,0.5,20.1-8.8,24.6c-9.1,4.3-20,0-24.2-9.2c-4.1-9.1,0.2-20.2,9.6-24.1c2.1-0.8,2.4-1.9,2.6-3.8c0.8-6-1-10.5-5.8-14.2
				c-3.2-2.6-6.1-5.7-8.8-8.8c-1.1-1.3-2.1-3.4-2.2-5.2c-0.3-3.9,0-7.9-0.2-11.8c-0.1-1.3-0.7-2.9-1.7-3.9c-2-2.3-3.9-5.4-6.4-6.1
				c-2.4-0.6-5.5,1.6-8.4,2.1c-5,0.8-10.1,1.7-15,1.8c-7.9,0.3-15.9,0.1-24.2,0.1c0,5.2-0.1,10.3,0.1,15.4c0,0.7,0.9,1.6,1.6,2.2
				c5.1,5.2,10.2,10.4,15.5,15.4c1.8,1.8,2.5,3.6,2.5,6c-0.1,5.8,0,11.7-0.1,17.5c0,1.7,0.4,2.4,2.1,3.1
				c8.7,3.4,13.4,12.4,11.2,21.3c-2.1,8.5-10.6,14.7-18.9,13.8c-9.9-1-16.7-8.2-17.1-17.8c-0.3-7.2,4.5-14.4,11.6-17.2
				c1.7-0.6,2.3-1.5,2.3-3.2c-0.1-5.1,0-10.2-0.1-15.2c0-0.8-0.2-2-0.7-2.6c-4.6-4.7-9.1-9.2-13.9-14c-4.9,5.5-11.3,5.9-17.9,5.9
				c-11.8-0.1-23.5-0.1-35.4,0c-1.5,0-3.1,0.9-4.4,1.9c-2.1,1.8-3.7,4-5.9,5.7c-3,2.4-3.8,5.2-3.6,8.8c0.3,4.1,0,8.3,0.2,12.4
				c0,0.8,0.8,2.1,1.6,2.4c8.2,3.6,12.4,10.1,12,18.3c-0.5,8.2-5.5,14.2-14,16.7c-0.4,0.1-0.8,0.3-1.3,0.5
				C101.9,294.9,100,294.9,98.1,294.9z M167.8,150.2c0-19.7,0-39.4,0-59.1c0-7.3-2.8-10.1-10.1-10.1c-29.8,0-59.4,0-89.2,0
				c-7.1,0-10.1,2.9-10.1,10c0,39.3,0,78.7,0,118c0,7.3,2.9,10.2,10.2,10.2c29.8,0,59.4,0,89.2,0c7.1,0,10-2.9,10-10
				C167.8,189.4,167.8,169.8,167.8,150.2z M176.8,188.7c6.5,0,12.7,0.1,18.9,0c4.8-0.1,9.6,0,14.4-0.7c17.9-2.9,31.7-19.5,31.6-38
				c-0.1-18.5-13.6-35.4-31.5-37.6c-10.8-1.3-21.8-0.6-32.8-0.8c-0.1,0-0.3,0.2-0.6,0.3c0,4.7,0,9.2,0,14.3c1.1,0,2.2,0,3.2,0
				c8.3,0.1,16.6-0.1,24.9,0.2c12.2,0.6,22,11.3,22.1,23.6c0,12.3-9.7,23.1-22,23.8c-8.3,0.4-16.6,0.2-24.9,0.2c-1,0-2.2,0-3.3,0
				C176.8,179,176.8,183.6,176.8,188.7z M176.9,164.8c9.4,0,18.6,0.3,27.7-0.1c7.7-0.3,13.5-7.2,13.5-14.7c0-7.7-5.9-14.3-13.6-14.7
				c-8.9-0.4-17.9-0.1-26.9-0.2c-0.2,0-0.5,0.2-0.7,0.4C176.9,145.1,176.9,154.9,176.9,164.8z M201,274.3c0-5-4-9.2-9.1-9.3
				c-5.1-0.1-9.4,4-9.5,9.2c0,5.1,4.4,9.4,9.3,9.3C196.8,283.4,201,279.1,201,274.3z M259.2,78.6c5.1,0,9.2-3.9,9.2-9
				c0.1-5.2-3.9-9.4-9.1-9.4c-5.1-0.1-9.3,4.3-9.3,9.3C250.1,74.5,254.2,78.6,259.2,78.6z M31.8,59.1c0,5.2,4.1,9.3,9.3,9.2
				c5,0,9.1-4.3,9.1-9.2c0-5.1-4.4-9.4-9.3-9.3C35.9,50,31.8,54.2,31.8,59.1z M91.8,276.7c0,5.1,4,9.1,9.1,9.1c5.2,0,9.3-4,9.2-9.3
				c0-5.1-4-9.1-9.1-9.2C95.8,267.3,91.7,271.5,91.8,276.7z M254,273.5c5.1,0,9.1-4,9.2-9.1s-4.1-9.3-9.3-9.2c-5.1,0-9.1,4-9.1,9.1
				C244.7,269.5,248.8,273.6,254,273.5z M50.6,255.6c0-5.1-4.1-9.1-9.1-9.1c-5.2,0-9.3,4.1-9.2,9.3c0.1,5.1,4.1,9.1,9.2,9.1
				S50.6,260.9,50.6,255.6z M102.1,14.1c-5.2,0-9.3,4.1-9.3,9.2s4,9.1,9.1,9.2s9.2-3.9,9.3-9C111.3,18.3,107.3,14.1,102.1,14.1z
				 M205.1,31.8c0-5.2-4-9.3-9.2-9.2c-5.1,0-9.1,4-9.1,9.1c-0.1,5.1,3.9,9.1,9,9.2C200.9,40.9,205.1,36.9,205.1,31.8z"/>
			<path class="st2" d="M74.4,149.9c0-3.8-0.1-7.6,0-11.5c0.1-6.2,4.1-9.5,10.2-8.6c8.1,1.3,16.2,2.5,24.2,3.9
				c1.8,0.3,2.9-0.1,4.1-1.2c7.8-6.9,18-7.9,27.3-2.7c8.3,4.6,13,14.5,11.2,24.1c-1.6,8.6-6.5,14.7-14.7,17.9
				c-8.5,3.2-16.5,1.8-23.4-4.1c-1.6-1.3-3-1.8-5.1-1.5c-7.7,1.4-15.4,2.4-23.1,3.7c-6.6,1.1-10.6-2.1-10.7-8.8
				C74.4,157.4,74.4,153.7,74.4,149.9z M83.2,161.5c8.9-1.4,17.5-2.6,26.1-4.2c3.6-0.6,6.1,0,8.6,2.9c5.5,6.2,15.4,6.1,21.1,0.1
				c5.7-6,5.4-15.8-0.8-21.2c-6.2-5.5-15.3-5.1-20.7,1.2c-2.1,2.4-4.4,3.2-7.4,2.6c-2.7-0.5-5.4-0.9-8.1-1.3
				c-6.2-1-12.5-1.9-18.9-2.9C83.2,146.3,83.2,153.7,83.2,161.5z"/>
		</g>
		<g id="time_3_" class="st0">
			<path class="st3" d="M160.9,213.4v-54.2h63.2c5,0,9.1-4,9.1-9.1s-4-9.1-9.1-9.1h-72.2c-5,0-9.1,4-9.1,9.1v63.3c0,5,4,9.1,9.1,9.1
				C156.9,222.3,160.9,218.3,160.9,213.4z"/>
			<path class="st3" d="M296.4,150.1c0-79.8-64.7-144.5-144.5-144.5S7.4,70.3,7.4,150.1s64.7,144.5,144.5,144.5
				S296.4,229.9,296.4,150.1z M34.4,150.1C34.4,85.4,87,32.6,151.9,32.6c64.7,0,117.5,52.7,117.5,117.5s-52.7,117.5-117.5,117.5
				C87.2,267.6,34.4,214.8,34.4,150.1z"/>
		</g>
		<g class="st0">
			<path class="st3" d="M260.3,276V25.2c0-10.6-8.6-19.6-19.3-19.6H62.5c-10.6,0-18.9,8.9-18.9,19.6V276c0,10.6,8.3,18.6,18.9,18.6
				H241C251.8,294.6,260.3,286.6,260.3,276z M249.3,71.5c0,3.9-3.2,7-7,7s-7-3.2-7-7s3.2-7,7-7S249.3,67.7,249.3,71.5z M249.3,51.2
				c0,3.9-3.2,7-7,7s-7-3.2-7-7s3.2-7,7-7S249.3,47.4,249.3,51.2z M249.3,31c0,3.9-3.2,7-7,7s-7-3.2-7-7s3.2-7,7-7
				S249.3,27.2,249.3,31z M61.6,277.1c-0.3,0-0.5,0.1-0.5-0.2v-0.5V24v-0.9h0.5h161.5h0.5c0.3,0,0.5,0.7,0.5,0.9v252.9
				c0,0.3-0.2,0.2-0.5,0.2H61.6L61.6,277.1z M235.1,270.4v-76.6c0-3.9,3.2-7,7.1-7s7.1,3.2,7.1,7v76.6c0,3.9-3.2,7-7.1,7
				S235.1,274.2,235.1,270.4z"/>
			<g class="st4">
				<path class="st5" d="M180.4,49.3v76.6c0,3.9,3.2,7,7.1,7c3.9,0,7.1-3.2,7.1-7V49.3c0-3.9-3.2-7-7.1-7
					C183.5,42.2,180.4,45.3,180.4,49.3z"/>
				<path class="st5" d="M170.5,125.9V49.3c0-3.9-3.2-7-7.1-7c-3.9,0-7.1,3.2-7.1,7v76.6c0,3.9,3.2,7,7.1,7S170.5,129.7,170.5,125.9
					z"/>
				<path class="st5" d="M146.4,125.9V49.3c0-3.9-3.2-7-7.1-7s-7.1,3.2-7.1,7v76.6c0,3.9,3.2,7,7.1,7S146.4,129.7,146.4,125.9z"/>
				<path class="st5" d="M122.3,125.9V49.3c0-3.9-3.2-7-7.1-7s-7.1,3.2-7.1,7v76.6c0,3.9,3.2,7,7.1,7S122.3,129.7,122.3,125.9z"/>
			</g>
			<path class="st3" d="M196.8,245.1v-81c0-7.6-6.1-14-13.7-14h-0.5h-80.5h-0.5c-7.2,0-13.1,6.2-13.1,13.5v0.5v80.5v0.5
				c0,7.6,6.1,13.4,13.7,13.4h81C190.7,258.5,196.8,252.7,196.8,245.1z"/>
		</g>
		<rect x="-0.1" y="106" class="st5" width="300" height="90"/>
		<g class="st0">
			<path class="st1" d="M294.8,201.8c-1.6,5.5-4.3,10.2-9.5,13.1c-9.4,5.2-21.5,1-25.5-8.9c-0.8-2.1-1.8-2.6-3.8-2.6
				c-5.2,0.1-10.4-0.1-15.6,0.1c-3.4,0.1-6.1-0.7-8.2-3.4c-1-1.3-2.3-2.5-3.4-3.8c-0.3,0.1-0.5,0.1-0.8,0.2c0,0.9,0,1.9,0,2.8
				c0,9.7-0.1,19.4,0,29.1c0.1,7.4-0.9,14.2-8.1,19.2c2.3,2.1,4.3,3.9,6.4,5.7c0.6,0.4,1.6,0.5,2.4,0.6c0.9,0.1,1.9-0.1,2.8,0
				c4.1,0.6,6.7-0.4,8.8-4.8c3.6-7.6,12.9-10.6,20.8-8.1c8,2.5,13.3,10.3,12.7,18.7c-0.6,8.4-7.1,15.6-15.1,16.7
				c-8.6,1.2-16.8-3.2-19.8-11.1c-0.7-2-1.8-2.7-3.6-2.4c-8.8,1.6-15.7-1.5-20.7-8.7c-2.4-3.3-5.5-4-9.5-4c-32,0.2-64.2,0.1-96.3,0
				c-2.2,0-3.7,0.5-5.2,2.2c-2.8,3-5.5,5.9-8.6,8.6c-1.5,1.2-3.5,2.1-5.5,2.3c-3.3,0.3-6.7,0.2-10.2,0c-1.8-0.1-2.6,0.5-3.2,2.2
				c-2.8,7.2-9.7,11.7-17.2,11.5c-7.6-0.2-14.4-5.1-16.8-12.1c-3.2-9.2,1.5-19.5,10.5-23c9.2-3.6,19.7,0.7,23.4,10
				c0.8,2.1,1.8,2.8,3.8,2.6c1.9-0.2,3.8-0.2,5.6,0c3.3,0.4,5.3-1.1,7.1-3.8c-0.9-0.1-1.6-0.2-2.3-0.2c-11.3-0.2-18.4-7.3-18.4-18.6
				c0-14.3,0-28.7,0-43c0-1,0-2,0-3c-4.5-0.8-8.1-0.5-11.1,3.2c-3.1,3.7-6.9,6.9-10.3,10.5c-2,2.1-4.1,3.2-6.9,2.8
				c-1.8-0.2-2.6,0.4-3.3,2.2c-3.2,8.4-11.8,13.1-20.5,11.3c-8.3-1.7-14.5-9.2-14.6-17.7c-0.1-8.7,6.3-16.4,14.9-18
				c8.5-1.7,16.9,3.1,20.2,11.3c1,2.5,2.7,2.9,4.6,0.9c4.1-4,8.4-8.2,12.3-12.4c2.3-2.5,4.9-3.6,8.2-3.4c2,0.2,3.9,0,6.4,0
				c0-1.1,0-2.2,0-3.1c0-10.1,0.1-20.2,0-30.3c-0.1-6.3,1.3-11.9,6.9-16.6c-2.7-2.6-5.3-5-7.9-7.5c-2.9-2.8-5.8-5.6-8.6-8.6
				c-1.5-1.6-2.9-2.3-5-2c-0.4,0.1-0.9,0.1-1.5,0c-4.1-0.5-6.9,0.2-9,4.9c-3.4,7.5-12.9,10.6-20.8,8.1c-8.1-2.5-13.2-10.2-12.7-18.9
				c0.5-8.1,6.8-14.9,15-16.4s16.6,3,19.7,10.8c0.8,2.1,1.8,2.6,3.8,2.6c14.8,0.2,9.7-2,20.5,8.5c4.6,4.5,9,9.1,13.7,13.6
				c0.9,0.8,2.4,1.5,3.6,1.5c3.9,0.2,7.9,0.1,12.3,0.1c0-1.1,0-2.1,0-3.1c0-7.9-0.1-15.9,0-23.8c0.2-12.3,4.6-22.9,13-32
				c0.4-0.4,0.7-0.8,1.2-1.5C110.4,56.8,104.7,51,99,45.3c-0.4-0.4-1.1-0.5-1.8-0.5c-3.4,0-6.7,0-10.3,0c-1.7,5.2-4.7,9.3-9.5,11.7
				c-9.2,4.7-20.3,0.8-24.9-8.7c-4.3-8.9,0-20,9.2-24.2s20.1,0.1,24.1,9.5c0.9,2.2,2.1,2.6,4.1,2.6c15.2,0.2,10.2-2,21.2,8.8
				c4,3.9,8,8,11.9,11.9c24.5-13.2,45.9-9.5,65,11c2.3-2.4,4.4-5,6.9-7.2c1.5-1.2,3.6-1.7,5.4-2.4c0.5-0.2,1.1,0,1.7,0
				c4.1-0.1,8.7,0.9,12.3-0.5c3.5-1.5,6.4-5.2,8.9-8.4c5-6.5,11.2-9.3,19.4-8c1.1,0.2,2.3,0,3.4,0c1.8-5.3,4.8-9.4,9.9-11.9
				c9.3-4.5,20.1-0.5,24.6,8.8c4.3,9.1,0,20-9.2,24.2c-9.1,4.1-20.2-0.2-24.1-9.6c-0.8-2.1-1.9-2.4-3.8-2.6c-6-0.8-10.5,1-14.2,5.8
				c-2.6,3.2-5.7,6.1-8.8,8.8c-1.3,1.1-3.4,2.1-5.2,2.2c-3.9,0.3-7.9,0-11.8,0.2c-1.3,0.1-2.9,0.7-3.9,1.7c-2.3,2-5.4,3.9-6.1,6.4
				c-0.6,2.4,1.6,5.5,2.1,8.4c0.8,5,1.7,10.1,1.8,15c0.3,7.9,0.1,15.9,0.1,24.2c5.2,0,10.3,0.1,15.4-0.1c0.7,0,1.6-0.9,2.2-1.6
				c5.2-5.1,10.4-10.2,15.4-15.5c1.8-1.8,3.6-2.5,6-2.5c5.8,0.1,11.7,0,17.5,0.1c1.7,0,2.4-0.4,3.1-2.1c3.4-8.7,12.4-13.4,21.3-11.2
				c8.5,2.1,14.7,10.6,13.8,18.9c-1,9.9-8.2,16.7-17.8,17.1c-7.2,0.3-14.4-4.5-17.2-11.6c-0.6-1.7-1.5-2.3-3.2-2.3
				c-5.1,0.1-10.2,0-15.2,0.1c-0.8,0-2,0.2-2.6,0.7c-4.7,4.6-9.2,9.1-14,13.9c5.5,4.9,5.9,11.3,5.9,17.9c-0.1,11.8-0.1,23.5,0,35.4
				c0,1.5,0.9,3.1,1.9,4.4c1.8,2.1,4,3.7,5.7,5.9c2.4,3,5.2,3.8,8.8,3.6c4.1-0.3,8.3,0,12.4-0.2c0.8,0,2.1-0.8,2.4-1.6
				c3.6-8.2,10.1-12.4,18.3-12c8.2,0.5,14.2,5.5,16.7,14c0.1,0.4,0.3,0.8,0.5,1.3C294.8,198,294.8,199.9,294.8,201.8z M150.1,132.1
				c-19.7,0-39.4,0-59.1,0c-7.3,0-10.1,2.8-10.1,10.1c0,29.8,0,59.4,0,89.2c0,7.1,2.9,10.1,10,10.1c39.3,0,78.7,0,118,0
				c7.3,0,10.2-2.9,10.2-10.2c0-29.8,0-59.4,0-89.2c0-7.1-2.9-10-10-10C189.3,132.1,169.7,132.1,150.1,132.1z M188.6,123.1
				c0-6.5,0.1-12.7,0-18.9c-0.1-4.8,0-9.6-0.7-14.4c-2.9-17.9-19.5-31.7-38-31.6c-18.5,0.1-35.4,13.6-37.6,31.5
				c-1.3,10.8-0.6,21.8-0.8,32.8c0,0.1,0.2,0.3,0.3,0.6c4.7,0,9.2,0,14.3,0c0-1.1,0-2.2,0-3.2c0.1-8.3-0.1-16.6,0.2-24.9
				c0.6-12.2,11.3-22,23.6-22.1c12.3,0,23.1,9.7,23.8,22c0.4,8.3,0.2,16.6,0.2,24.9c0,1,0,2.2,0,3.3
				C178.9,123.1,183.5,123.1,188.6,123.1z M164.7,123c0-9.4,0.3-18.6-0.1-27.7c-0.3-7.7-7.2-13.5-14.7-13.5
				c-7.7,0-14.3,5.9-14.7,13.6c-0.4,8.9-0.1,17.9-0.2,26.9c0,0.2,0.2,0.5,0.4,0.7C145,123,154.8,123,164.7,123z M274.2,98.9
				c-5,0-9.2,4-9.3,9.1c-0.1,5.1,4,9.4,9.2,9.5c5.1,0,9.4-4.4,9.3-9.3C283.3,103.1,279,98.9,274.2,98.9z M78.5,40.7
				c0-5.1-3.9-9.2-9-9.2c-5.2-0.1-9.4,3.9-9.4,9.1c-0.1,5.1,4.3,9.3,9.3,9.3C74.4,49.8,78.5,45.7,78.5,40.7z M59,268.1
				c5.2,0,9.3-4.1,9.2-9.3c0-5-4.3-9.1-9.2-9.1c-5.1,0-9.4,4.4-9.3,9.3C49.9,264,54.1,268.1,59,268.1z M276.6,208.1
				c5.1,0,9.1-4,9.1-9.1c0-5.2-4-9.3-9.3-9.2c-5.1,0-9.1,4-9.2,9.1C267.2,204.1,271.4,208.2,276.6,208.1z M273.4,45.9
				c0-5.1-4-9.1-9.1-9.2c-5.1-0.1-9.3,4.1-9.2,9.3c0,5.1,4,9.1,9.1,9.1C269.4,55.2,273.5,51.1,273.4,45.9z M255.5,249.3
				c-5.1,0-9.1,4.1-9.1,9.1c0,5.2,4.1,9.3,9.3,9.2c5.1-0.1,9.1-4.1,9.1-9.2C264.8,253.3,260.8,249.3,255.5,249.3z M14,197.8
				c0,5.2,4.1,9.3,9.2,9.3s9.1-4,9.2-9.1s-3.9-9.2-9-9.3C18.2,188.6,14,192.6,14,197.8z M31.7,94.8c-5.2,0-9.3,4-9.2,9.2
				c0,5.1,4,9.1,9.1,9.1c5.1,0.1,9.1-3.9,9.2-9C40.8,99,36.8,94.8,31.7,94.8z"/>
			<path class="st2" d="M149.8,225.5c-3.8,0-7.6,0.1-11.5,0c-6.2-0.1-9.5-4.1-8.6-10.2c1.3-8.1,2.5-16.2,3.9-24.2
				c0.3-1.8-0.1-2.9-1.2-4.1c-6.9-7.8-7.9-18-2.7-27.3c4.6-8.3,14.5-13,24.1-11.2c8.6,1.6,14.7,6.5,17.9,14.7
				c3.2,8.5,1.8,16.5-4.1,23.4c-1.3,1.6-1.8,3-1.5,5.1c1.4,7.7,2.4,15.4,3.7,23.1c1.1,6.6-2.1,10.6-8.8,10.7
				C157.3,225.5,153.6,225.5,149.8,225.5z M161.4,216.7c-1.4-8.9-2.6-17.5-4.2-26.1c-0.6-3.6,0-6.1,2.9-8.6
				c6.2-5.5,6.1-15.4,0.1-21.1c-6-5.7-15.8-5.4-21.2,0.8c-5.5,6.2-5.1,15.3,1.2,20.7c2.4,2.1,3.2,4.4,2.6,7.4
				c-0.5,2.7-0.9,5.4-1.3,8.1c-1,6.2-1.9,12.5-2.9,18.9C146.2,216.7,153.6,216.7,161.4,216.7z"/>
		</g>
		<g id="time_2_" class="st0">
			<path class="st3" d="M213.3,139h-54.2V75.8c0-5-4-9.1-9.1-9.1s-9.1,4-9.1,9.1V148c0,5,4,9.1,9.1,9.1h63.3c5,0,9.1-4,9.1-9.1
				C222.2,143,218.2,139,213.3,139z"/>
			<path class="st3" d="M150,3.5C70.2,3.5,5.5,68.2,5.5,148S70.2,292.5,150,292.5S294.5,227.8,294.5,148S229.8,3.5,150,3.5z
				 M150,265.5c-64.7,0-117.5-52.6-117.5-117.5C32.5,83.3,85.2,30.5,150,30.5S267.5,83.2,267.5,148
				C267.5,212.7,214.7,265.5,150,265.5z"/>
		</g>
		<g class="st0">
			<path class="st3" d="M275.9,39.6H25.1c-10.6,0-19.6,8.6-19.6,19.3v178.5c0,10.6,8.9,18.9,19.6,18.9h250.8
				c10.6,0,18.6-8.3,18.6-18.9V58.9C294.5,48.1,286.5,39.6,275.9,39.6z M71.4,50.6c3.9,0,7,3.2,7,7s-3.2,7-7,7s-7-3.2-7-7
				S67.6,50.6,71.4,50.6z M51.1,50.6c3.9,0,7,3.2,7,7s-3.2,7-7,7s-7-3.2-7-7S47.3,50.6,51.1,50.6z M30.9,50.6c3.9,0,7,3.2,7,7
				s-3.2,7-7,7s-7-3.2-7-7S27.1,50.6,30.9,50.6z M277,238.3c0,0.3,0.1,0.5-0.2,0.5h-0.5H23.9H23v-0.5V76.8v-0.5
				c0-0.3,0.7-0.5,0.9-0.5h252.9c0.3,0,0.2,0.2,0.2,0.5V238.3L277,238.3z M270.3,64.8h-76.6c-3.9,0-7-3.2-7-7.1s3.2-7.1,7-7.1h76.6
				c3.9,0,7,3.2,7,7.1S274.1,64.8,270.3,64.8z"/>
			<g class="st4">
				<path class="st5" d="M49.2,119.5h76.6c3.9,0,7-3.2,7-7.1s-3.2-7.1-7-7.1H49.2c-3.9,0-7,3.2-7,7.1
					C42.1,116.4,45.2,119.5,49.2,119.5z"/>
				<path class="st5" d="M125.8,129.4H49.2c-3.9,0-7,3.2-7,7.1c0,3.9,3.2,7.1,7,7.1h76.6c3.9,0,7-3.2,7-7.1
					C132.8,132.6,129.6,129.4,125.8,129.4z"/>
				<path class="st5" d="M125.8,153.5H49.2c-3.9,0-7,3.2-7,7.1s3.2,7.1,7,7.1h76.6c3.9,0,7-3.2,7-7.1S129.6,153.5,125.8,153.5z"/>
				<path class="st5" d="M125.8,177.6H49.2c-3.9,0-7,3.2-7,7.1s3.2,7.1,7,7.1h76.6c3.9,0,7-3.2,7-7.1S129.6,177.6,125.8,177.6z"/>
			</g>
			<path class="st3" d="M245,103.1h-81c-7.6,0-14,6.1-14,13.7v0.5v80.5v0.5c0,7.2,6.2,13.1,13.5,13.1h0.5h80.5h0.5
				c7.6,0,13.4-6.1,13.4-13.7v-81C258.4,109.2,252.6,103.1,245,103.1z"/>
		</g>
	</g>
</g>
<g id="icon_x5F_plus" class="st0">
	<g class="st4">
		<g class="st0">
			<path class="st6" d="M98.1,294.9c-5.5-1.6-10.2-4.3-13.1-9.5c-5.2-9.4-1-21.5,8.9-25.5c2.1-0.8,2.6-1.8,2.6-3.8
				c-0.1-5.2,0.1-10.4-0.1-15.6c-0.1-3.4,0.7-6.1,3.4-8.2c1.3-1,2.5-2.3,3.8-3.4c-0.1-0.3-0.1-0.5-0.2-0.8c-0.9,0-1.9,0-2.8,0
				c-9.7,0-19.4-0.1-29.1,0c-7.4,0.1-14.2-0.9-19.2-8.1c-2.1,2.3-3.9,4.3-5.7,6.4c-0.4,0.6-0.5,1.6-0.6,2.4c-0.1,0.9,0.1,1.9,0,2.8
				c-0.6,4.1,0.4,6.7,4.8,8.8c7.6,3.6,10.6,12.9,8.1,20.8c-2.5,8-10.3,13.3-18.7,12.7c-8.4-0.6-15.6-7.1-16.7-15.1
				c-1.2-8.6,3.2-16.8,11.1-19.8c2-0.7,2.7-1.8,2.4-3.6c-1.6-8.8,1.5-15.7,8.7-20.7c3.3-2.4,4-5.5,4-9.5c-0.2-32-0.1-64.2,0-96.3
				c0-2.2-0.5-3.7-2.2-5.2c-3-2.8-5.9-5.5-8.6-8.6c-1.2-1.5-2.1-3.5-2.3-5.5c-0.3-3.3-0.2-6.7,0-10.2c0.1-1.8-0.5-2.6-2.2-3.2
				c-7.2-2.8-11.7-9.7-11.5-17.2C23.1,51.4,28,44.6,35,42.2c9.2-3.2,19.5,1.5,23,10.5c3.6,9.2-0.7,19.7-10,23.4
				c-2.1,0.8-2.8,1.8-2.6,3.8c0.2,1.9,0.2,3.8,0,5.6c-0.4,3.3,1.1,5.3,3.8,7.1c0.1-0.9,0.2-1.6,0.2-2.3C49.6,79,56.7,71.9,68,71.9
				c14.3,0,28.7,0,43,0c1,0,2,0,3,0c0.8-4.5,0.5-8.1-3.2-11.1c-3.7-3.1-6.9-6.9-10.5-10.3c-2.1-2-3.2-4.1-2.8-6.9
				c0.2-1.8-0.4-2.6-2.2-3.3C86.9,37.1,82.2,28.5,84,19.8c1.7-8.3,9.2-14.5,17.7-14.6c8.7-0.1,16.4,6.3,18,14.9
				c1.7,8.5-3.1,16.9-11.3,20.2c-2.5,1-2.9,2.7-0.9,4.6c4,4.1,8.2,8.4,12.4,12.3c2.5,2.3,3.6,4.9,3.4,8.2c-0.2,2,0,3.9,0,6.4
				c1.1,0,2.2,0,3.1,0c10.1,0,20.2,0.1,30.3,0c6.3-0.1,11.9,1.3,16.6,6.9c2.6-2.7,5-5.3,7.5-7.9c2.8-2.9,5.6-5.8,8.6-8.6
				c1.6-1.5,2.3-2.9,2-5c-0.1-0.4-0.1-0.9,0-1.5c0.5-4.1-0.2-6.9-4.9-9c-7.5-3.4-10.6-12.9-8.1-20.8c2.5-8.1,10.2-13.2,18.9-12.7
				c8.1,0.5,14.9,6.8,16.4,15s-3,16.6-10.8,19.7c-2.1,0.8-2.6,1.8-2.6,3.8c-0.2,14.8,2,9.7-8.5,20.5c-4.5,4.6-9.1,9-13.6,13.7
				c-0.8,0.9-1.5,2.4-1.5,3.6c-0.2,3.9-0.1,7.9-0.1,12.3c1.1,0,2.1,0,3.1,0c7.9,0,15.9-0.1,23.8,0c12.3,0.2,22.9,4.6,32,13
				c0.4,0.4,0.8,0.7,1.5,1.2c6.1-5.5,11.9-11.2,17.6-16.9c0.4-0.4,0.5-1.1,0.5-1.8c0-3.4,0-6.7,0-10.3c-5.2-1.7-9.3-4.7-11.7-9.5
				c-4.7-9.2-0.8-20.3,8.7-24.9c8.9-4.3,20,0,24.2,9.2s-0.1,20.1-9.5,24.1c-2.2,0.9-2.6,2.1-2.6,4.1c-0.2,15.2,2,10.2-8.8,21.2
				c-3.9,4-8,8-11.9,11.9c13.2,24.5,9.5,45.9-11,65c2.4,2.3,5,4.4,7.2,6.9c1.2,1.5,1.7,3.6,2.4,5.4c0.2,0.5,0,1.1,0,1.7
				c0.1,4.1-0.9,8.7,0.5,12.3c1.5,3.5,5.2,6.4,8.4,8.9c6.5,5,9.3,11.2,8,19.4c-0.2,1.1,0,2.3,0,3.4c5.3,1.8,9.4,4.8,11.9,9.9
				c4.5,9.3,0.5,20.1-8.8,24.6c-9.1,4.3-20,0-24.2-9.2c-4.1-9.1,0.2-20.2,9.6-24.1c2.1-0.8,2.4-1.9,2.6-3.8c0.8-6-1-10.5-5.8-14.2
				c-3.2-2.6-6.1-5.7-8.8-8.8c-1.1-1.3-2.1-3.4-2.2-5.2c-0.3-3.9,0-7.9-0.2-11.8c-0.1-1.3-0.7-2.9-1.7-3.9c-2-2.3-3.9-5.4-6.4-6.1
				c-2.4-0.6-5.5,1.6-8.4,2.1c-5,0.8-10.1,1.7-15,1.8c-7.9,0.3-15.9,0.1-24.2,0.1c0,5.2-0.1,10.3,0.1,15.4c0,0.7,0.9,1.6,1.6,2.2
				c5.1,5.2,10.2,10.4,15.5,15.4c1.8,1.8,2.5,3.6,2.5,6c-0.1,5.8,0,11.7-0.1,17.5c0,1.7,0.4,2.4,2.1,3.1
				c8.7,3.4,13.4,12.4,11.2,21.3c-2.1,8.5-10.6,14.7-18.9,13.8c-9.9-1-16.7-8.2-17.1-17.8c-0.3-7.2,4.5-14.4,11.6-17.2
				c1.7-0.6,2.3-1.5,2.3-3.2c-0.1-5.1,0-10.2-0.1-15.2c0-0.8-0.2-2-0.7-2.6c-4.6-4.7-9.1-9.2-13.9-14c-4.9,5.5-11.3,5.9-17.9,5.9
				c-11.8-0.1-23.5-0.1-35.4,0c-1.5,0-3.1,0.9-4.4,1.9c-2.1,1.8-3.7,4-5.9,5.7c-3,2.4-3.8,5.2-3.6,8.8c0.3,4.1,0,8.3,0.2,12.4
				c0,0.8,0.8,2.1,1.6,2.4c8.2,3.6,12.4,10.1,12,18.3c-0.5,8.2-5.5,14.2-14,16.7c-0.4,0.1-0.8,0.3-1.3,0.5
				C101.9,294.9,100,294.9,98.1,294.9z M167.8,150.2c0-19.7,0-39.4,0-59.1c0-7.3-2.8-10.1-10.1-10.1c-29.8,0-59.4,0-89.2,0
				c-7.1,0-10.1,2.9-10.1,10c0,39.3,0,78.7,0,118c0,7.3,2.9,10.2,10.2,10.2c29.8,0,59.4,0,89.2,0c7.1,0,10-2.9,10-10
				C167.8,189.4,167.8,169.8,167.8,150.2z M176.8,188.7c6.5,0,12.7,0.1,18.9,0c4.8-0.1,9.6,0,14.4-0.7c17.9-2.9,31.7-19.5,31.6-38
				c-0.1-18.5-13.6-35.4-31.5-37.6c-10.8-1.3-21.8-0.6-32.8-0.8c-0.1,0-0.3,0.2-0.6,0.3c0,4.7,0,9.2,0,14.3c1.1,0,2.2,0,3.2,0
				c8.3,0.1,16.6-0.1,24.9,0.2c12.2,0.6,22,11.3,22.1,23.6c0,12.3-9.7,23.1-22,23.8c-8.3,0.4-16.6,0.2-24.9,0.2c-1,0-2.2,0-3.3,0
				C176.8,179,176.8,183.6,176.8,188.7z M176.9,164.8c9.4,0,18.6,0.3,27.7-0.1c7.7-0.3,13.5-7.2,13.5-14.7c0-7.7-5.9-14.3-13.6-14.7
				c-8.9-0.4-17.9-0.1-26.9-0.2c-0.2,0-0.5,0.2-0.7,0.4C176.9,145.1,176.9,154.9,176.9,164.8z M201,274.3c0-5-4-9.2-9.1-9.3
				c-5.1-0.1-9.4,4-9.5,9.2c0,5.1,4.4,9.4,9.3,9.3C196.8,283.4,201,279.1,201,274.3z M259.2,78.6c5.1,0,9.2-3.9,9.2-9
				c0.1-5.2-3.9-9.4-9.1-9.4c-5.1-0.1-9.3,4.3-9.3,9.3C250.1,74.5,254.2,78.6,259.2,78.6z M31.8,59.1c0,5.2,4.1,9.3,9.3,9.2
				c5,0,9.1-4.3,9.1-9.2c0-5.1-4.4-9.4-9.3-9.3C35.9,50,31.8,54.2,31.8,59.1z M91.8,276.7c0,5.1,4,9.1,9.1,9.1c5.2,0,9.3-4,9.2-9.3
				c0-5.1-4-9.1-9.1-9.2C95.8,267.3,91.7,271.5,91.8,276.7z M254,273.5c5.1,0,9.1-4,9.2-9.1s-4.1-9.3-9.3-9.2c-5.1,0-9.1,4-9.1,9.1
				C244.7,269.5,248.8,273.6,254,273.5z M50.6,255.6c0-5.1-4.1-9.1-9.1-9.1c-5.2,0-9.3,4.1-9.2,9.3c0.1,5.1,4.1,9.1,9.2,9.1
				S50.6,260.9,50.6,255.6z M102.1,14.1c-5.2,0-9.3,4.1-9.3,9.2s4,9.1,9.1,9.2s9.2-3.9,9.3-9C111.3,18.3,107.3,14.1,102.1,14.1z
				 M205.1,31.8c0-5.2-4-9.3-9.2-9.2c-5.1,0-9.1,4-9.1,9.1c-0.1,5.1,3.9,9.1,9,9.2C200.9,40.9,205.1,36.9,205.1,31.8z"/>
			<path class="st7" d="M74.4,149.9c0-3.8-0.1-7.6,0-11.5c0.1-6.2,4.1-9.5,10.2-8.6c8.1,1.3,16.2,2.5,24.2,3.9
				c1.8,0.3,2.9-0.1,4.1-1.2c7.8-6.9,18-7.9,27.3-2.7c8.3,4.6,13,14.5,11.2,24.1c-1.6,8.6-6.5,14.7-14.7,17.9
				c-8.5,3.2-16.5,1.8-23.4-4.1c-1.6-1.3-3-1.8-5.1-1.5c-7.7,1.4-15.4,2.4-23.1,3.7c-6.6,1.1-10.6-2.1-10.7-8.8
				C74.4,157.4,74.4,153.7,74.4,149.9z M83.2,161.5c8.9-1.4,17.5-2.6,26.1-4.2c3.6-0.6,6.1,0,8.6,2.9c5.5,6.2,15.4,6.1,21.1,0.1
				c5.7-6,5.4-15.8-0.8-21.2c-6.2-5.5-15.3-5.1-20.7,1.2c-2.1,2.4-4.4,3.2-7.4,2.6c-2.7-0.5-5.4-0.9-8.1-1.3
				c-6.2-1-12.5-1.9-18.9-2.9C83.2,146.3,83.2,153.7,83.2,161.5z"/>
		</g>
		<g id="time_1_" class="st0">
			<path class="st8" d="M160.9,213.4v-54.2h63.2c5,0,9.1-4,9.1-9.1s-4-9.1-9.1-9.1h-72.2c-5,0-9.1,4-9.1,9.1v63.3c0,5,4,9.1,9.1,9.1
				C156.9,222.3,160.9,218.3,160.9,213.4z"/>
			<path class="st8" d="M296.4,150.1c0-79.8-64.7-144.5-144.5-144.5S7.4,70.3,7.4,150.1s64.7,144.5,144.5,144.5
				S296.4,229.9,296.4,150.1z M34.4,150.1C34.4,85.4,87,32.6,151.9,32.6c64.7,0,117.5,52.7,117.5,117.5s-52.7,117.5-117.5,117.5
				C87.2,267.6,34.4,214.8,34.4,150.1z"/>
		</g>
		<g class="st0">
			<path class="st8" d="M260.3,276V25.2c0-10.6-8.6-19.6-19.3-19.6H62.5c-10.6,0-18.9,8.9-18.9,19.6V276c0,10.6,8.3,18.6,18.9,18.6
				H241C251.8,294.6,260.3,286.6,260.3,276z M249.3,71.5c0,3.9-3.2,7-7,7s-7-3.2-7-7s3.2-7,7-7S249.3,67.7,249.3,71.5z M249.3,51.2
				c0,3.9-3.2,7-7,7s-7-3.2-7-7s3.2-7,7-7S249.3,47.4,249.3,51.2z M249.3,31c0,3.9-3.2,7-7,7s-7-3.2-7-7s3.2-7,7-7
				S249.3,27.2,249.3,31z M61.6,277.1c-0.3,0-0.5,0.1-0.5-0.2v-0.5V24v-0.9h0.5h161.5h0.5c0.3,0,0.5,0.7,0.5,0.9v252.9
				c0,0.3-0.2,0.2-0.5,0.2H61.6L61.6,277.1z M235.1,270.4v-76.6c0-3.9,3.2-7,7.1-7s7.1,3.2,7.1,7v76.6c0,3.9-3.2,7-7.1,7
				S235.1,274.2,235.1,270.4z"/>
			<g class="st4">
				<path class="st9" d="M180.4,49.3v76.6c0,3.9,3.2,7,7.1,7c3.9,0,7.1-3.2,7.1-7V49.3c0-3.9-3.2-7-7.1-7
					C183.5,42.2,180.4,45.3,180.4,49.3z"/>
				<path class="st9" d="M170.5,125.9V49.3c0-3.9-3.2-7-7.1-7c-3.9,0-7.1,3.2-7.1,7v76.6c0,3.9,3.2,7,7.1,7S170.5,129.7,170.5,125.9
					z"/>
				<path class="st9" d="M146.4,125.9V49.3c0-3.9-3.2-7-7.1-7s-7.1,3.2-7.1,7v76.6c0,3.9,3.2,7,7.1,7S146.4,129.7,146.4,125.9z"/>
				<path class="st9" d="M122.3,125.9V49.3c0-3.9-3.2-7-7.1-7s-7.1,3.2-7.1,7v76.6c0,3.9,3.2,7,7.1,7S122.3,129.7,122.3,125.9z"/>
			</g>
			<path class="st8" d="M196.8,245.1v-81c0-7.6-6.1-14-13.7-14h-0.5h-80.5h-0.5c-7.2,0-13.1,6.2-13.1,13.5v0.5v80.5v0.5
				c0,7.6,6.1,13.4,13.7,13.4h81C190.7,258.5,196.8,252.7,196.8,245.1z"/>
		</g>
		<rect x="-0.1" y="106" class="st9" width="300" height="90"/>
		<g class="st0">
			<path class="st6" d="M294.8,201.8c-1.6,5.5-4.3,10.2-9.5,13.1c-9.4,5.2-21.5,1-25.5-8.9c-0.8-2.1-1.8-2.6-3.8-2.6
				c-5.2,0.1-10.4-0.1-15.6,0.1c-3.4,0.1-6.1-0.7-8.2-3.4c-1-1.3-2.3-2.5-3.4-3.8c-0.3,0.1-0.5,0.1-0.8,0.2c0,0.9,0,1.9,0,2.8
				c0,9.7-0.1,19.4,0,29.1c0.1,7.4-0.9,14.2-8.1,19.2c2.3,2.1,4.3,3.9,6.4,5.7c0.6,0.4,1.6,0.5,2.4,0.6c0.9,0.1,1.9-0.1,2.8,0
				c4.1,0.6,6.7-0.4,8.8-4.8c3.6-7.6,12.9-10.6,20.8-8.1c8,2.5,13.3,10.3,12.7,18.7c-0.6,8.4-7.1,15.6-15.1,16.7
				c-8.6,1.2-16.8-3.2-19.8-11.1c-0.7-2-1.8-2.7-3.6-2.4c-8.8,1.6-15.7-1.5-20.7-8.7c-2.4-3.3-5.5-4-9.5-4c-32,0.2-64.2,0.1-96.3,0
				c-2.2,0-3.7,0.5-5.2,2.2c-2.8,3-5.5,5.9-8.6,8.6c-1.5,1.2-3.5,2.1-5.5,2.3c-3.3,0.3-6.7,0.2-10.2,0c-1.8-0.1-2.6,0.5-3.2,2.2
				c-2.8,7.2-9.7,11.7-17.2,11.5c-7.6-0.2-14.4-5.1-16.8-12.1c-3.2-9.2,1.5-19.5,10.5-23c9.2-3.6,19.7,0.7,23.4,10
				c0.8,2.1,1.8,2.8,3.8,2.6c1.9-0.2,3.8-0.2,5.6,0c3.3,0.4,5.3-1.1,7.1-3.8c-0.9-0.1-1.6-0.2-2.3-0.2c-11.3-0.2-18.4-7.3-18.4-18.6
				c0-14.3,0-28.7,0-43c0-1,0-2,0-3c-4.5-0.8-8.1-0.5-11.1,3.2c-3.1,3.7-6.9,6.9-10.3,10.5c-2,2.1-4.1,3.2-6.9,2.8
				c-1.8-0.2-2.6,0.4-3.3,2.2c-3.2,8.4-11.8,13.1-20.5,11.3c-8.3-1.7-14.5-9.2-14.6-17.7c-0.1-8.7,6.3-16.4,14.9-18
				c8.5-1.7,16.9,3.1,20.2,11.3c1,2.5,2.7,2.9,4.6,0.9c4.1-4,8.4-8.2,12.3-12.4c2.3-2.5,4.9-3.6,8.2-3.4c2,0.2,3.9,0,6.4,0
				c0-1.1,0-2.2,0-3.1c0-10.1,0.1-20.2,0-30.3c-0.1-6.3,1.3-11.9,6.9-16.6c-2.7-2.6-5.3-5-7.9-7.5c-2.9-2.8-5.8-5.6-8.6-8.6
				c-1.5-1.6-2.9-2.3-5-2c-0.4,0.1-0.9,0.1-1.5,0c-4.1-0.5-6.9,0.2-9,4.9c-3.4,7.5-12.9,10.6-20.8,8.1c-8.1-2.5-13.2-10.2-12.7-18.9
				c0.5-8.1,6.8-14.9,15-16.4s16.6,3,19.7,10.8c0.8,2.1,1.8,2.6,3.8,2.6c14.8,0.2,9.7-2,20.5,8.5c4.6,4.5,9,9.1,13.7,13.6
				c0.9,0.8,2.4,1.5,3.6,1.5c3.9,0.2,7.9,0.1,12.3,0.1c0-1.1,0-2.1,0-3.1c0-7.9-0.1-15.9,0-23.8c0.2-12.3,4.6-22.9,13-32
				c0.4-0.4,0.7-0.8,1.2-1.5C110.4,56.8,104.7,51,99,45.3c-0.4-0.4-1.1-0.5-1.8-0.5c-3.4,0-6.7,0-10.3,0c-1.7,5.2-4.7,9.3-9.5,11.7
				c-9.2,4.7-20.3,0.8-24.9-8.7c-4.3-8.9,0-20,9.2-24.2s20.1,0.1,24.1,9.5c0.9,2.2,2.1,2.6,4.1,2.6c15.2,0.2,10.2-2,21.2,8.8
				c4,3.9,8,8,11.9,11.9c24.5-13.2,45.9-9.5,65,11c2.3-2.4,4.4-5,6.9-7.2c1.5-1.2,3.6-1.7,5.4-2.4c0.5-0.2,1.1,0,1.7,0
				c4.1-0.1,8.7,0.9,12.3-0.5c3.5-1.5,6.4-5.2,8.9-8.4c5-6.5,11.2-9.3,19.4-8c1.1,0.2,2.3,0,3.4,0c1.8-5.3,4.8-9.4,9.9-11.9
				c9.3-4.5,20.1-0.5,24.6,8.8c4.3,9.1,0,20-9.2,24.2c-9.1,4.1-20.2-0.2-24.1-9.6c-0.8-2.1-1.9-2.4-3.8-2.6c-6-0.8-10.5,1-14.2,5.8
				c-2.6,3.2-5.7,6.1-8.8,8.8c-1.3,1.1-3.4,2.1-5.2,2.2c-3.9,0.3-7.9,0-11.8,0.2c-1.3,0.1-2.9,0.7-3.9,1.7c-2.3,2-5.4,3.9-6.1,6.4
				c-0.6,2.4,1.6,5.5,2.1,8.4c0.8,5,1.7,10.1,1.8,15c0.3,7.9,0.1,15.9,0.1,24.2c5.2,0,10.3,0.1,15.4-0.1c0.7,0,1.6-0.9,2.2-1.6
				c5.2-5.1,10.4-10.2,15.4-15.5c1.8-1.8,3.6-2.5,6-2.5c5.8,0.1,11.7,0,17.5,0.1c1.7,0,2.4-0.4,3.1-2.1c3.4-8.7,12.4-13.4,21.3-11.2
				c8.5,2.1,14.7,10.6,13.8,18.9c-1,9.9-8.2,16.7-17.8,17.1c-7.2,0.3-14.4-4.5-17.2-11.6c-0.6-1.7-1.5-2.3-3.2-2.3
				c-5.1,0.1-10.2,0-15.2,0.1c-0.8,0-2,0.2-2.6,0.7c-4.7,4.6-9.2,9.1-14,13.9c5.5,4.9,5.9,11.3,5.9,17.9c-0.1,11.8-0.1,23.5,0,35.4
				c0,1.5,0.9,3.1,1.9,4.4c1.8,2.1,4,3.7,5.7,5.9c2.4,3,5.2,3.8,8.8,3.6c4.1-0.3,8.3,0,12.4-0.2c0.8,0,2.1-0.8,2.4-1.6
				c3.6-8.2,10.1-12.4,18.3-12c8.2,0.5,14.2,5.5,16.7,14c0.1,0.4,0.3,0.8,0.5,1.3C294.8,198,294.8,199.9,294.8,201.8z M150.1,132.1
				c-19.7,0-39.4,0-59.1,0c-7.3,0-10.1,2.8-10.1,10.1c0,29.8,0,59.4,0,89.2c0,7.1,2.9,10.1,10,10.1c39.3,0,78.7,0,118,0
				c7.3,0,10.2-2.9,10.2-10.2c0-29.8,0-59.4,0-89.2c0-7.1-2.9-10-10-10C189.3,132.1,169.7,132.1,150.1,132.1z M188.6,123.1
				c0-6.5,0.1-12.7,0-18.9c-0.1-4.8,0-9.6-0.7-14.4c-2.9-17.9-19.5-31.7-38-31.6c-18.5,0.1-35.4,13.6-37.6,31.5
				c-1.3,10.8-0.6,21.8-0.8,32.8c0,0.1,0.2,0.3,0.3,0.6c4.7,0,9.2,0,14.3,0c0-1.1,0-2.2,0-3.2c0.1-8.3-0.1-16.6,0.2-24.9
				c0.6-12.2,11.3-22,23.6-22.1c12.3,0,23.1,9.7,23.8,22c0.4,8.3,0.2,16.6,0.2,24.9c0,1,0,2.2,0,3.3
				C178.9,123.1,183.5,123.1,188.6,123.1z M164.7,123c0-9.4,0.3-18.6-0.1-27.7c-0.3-7.7-7.2-13.5-14.7-13.5
				c-7.7,0-14.3,5.9-14.7,13.6c-0.4,8.9-0.1,17.9-0.2,26.9c0,0.2,0.2,0.5,0.4,0.7C145,123,154.8,123,164.7,123z M274.2,98.9
				c-5,0-9.2,4-9.3,9.1c-0.1,5.1,4,9.4,9.2,9.5c5.1,0,9.4-4.4,9.3-9.3C283.3,103.1,279,98.9,274.2,98.9z M78.5,40.7
				c0-5.1-3.9-9.2-9-9.2c-5.2-0.1-9.4,3.9-9.4,9.1c-0.1,5.1,4.3,9.3,9.3,9.3C74.4,49.8,78.5,45.7,78.5,40.7z M59,268.1
				c5.2,0,9.3-4.1,9.2-9.3c0-5-4.3-9.1-9.2-9.1c-5.1,0-9.4,4.4-9.3,9.3C49.9,264,54.1,268.1,59,268.1z M276.6,208.1
				c5.1,0,9.1-4,9.1-9.1c0-5.2-4-9.3-9.3-9.2c-5.1,0-9.1,4-9.2,9.1C267.2,204.1,271.4,208.2,276.6,208.1z M273.4,45.9
				c0-5.1-4-9.1-9.1-9.2c-5.1-0.1-9.3,4.1-9.2,9.3c0,5.1,4,9.1,9.1,9.1C269.4,55.2,273.5,51.1,273.4,45.9z M255.5,249.3
				c-5.1,0-9.1,4.1-9.1,9.1c0,5.2,4.1,9.3,9.3,9.2c5.1-0.1,9.1-4.1,9.1-9.2C264.8,253.3,260.8,249.3,255.5,249.3z M14,197.8
				c0,5.2,4.1,9.3,9.2,9.3s9.1-4,9.2-9.1s-3.9-9.2-9-9.3C18.2,188.6,14,192.6,14,197.8z M31.7,94.8c-5.2,0-9.3,4-9.2,9.2
				c0,5.1,4,9.1,9.1,9.1c5.1,0.1,9.1-3.9,9.2-9C40.8,99,36.8,94.8,31.7,94.8z"/>
			<path class="st7" d="M149.8,225.5c-3.8,0-7.6,0.1-11.5,0c-6.2-0.1-9.5-4.1-8.6-10.2c1.3-8.1,2.5-16.2,3.9-24.2
				c0.3-1.8-0.1-2.9-1.2-4.1c-6.9-7.8-7.9-18-2.7-27.3c4.6-8.3,14.5-13,24.1-11.2c8.6,1.6,14.7,6.5,17.9,14.7
				c3.2,8.5,1.8,16.5-4.1,23.4c-1.3,1.6-1.8,3-1.5,5.1c1.4,7.7,2.4,15.4,3.7,23.1c1.1,6.6-2.1,10.6-8.8,10.7
				C157.3,225.5,153.6,225.5,149.8,225.5z M161.4,216.7c-1.4-8.9-2.6-17.5-4.2-26.1c-0.6-3.6,0-6.1,2.9-8.6
				c6.2-5.5,6.1-15.4,0.1-21.1c-6-5.7-15.8-5.4-21.2,0.8c-5.5,6.2-5.1,15.3,1.2,20.7c2.4,2.1,3.2,4.4,2.6,7.4
				c-0.5,2.7-0.9,5.4-1.3,8.1c-1,6.2-1.9,12.5-2.9,18.9C146.2,216.7,153.6,216.7,161.4,216.7z"/>
		</g>
		<g id="time" class="st0">
			<path class="st8" d="M213.3,139h-54.2V75.8c0-5-4-9.1-9.1-9.1s-9.1,4-9.1,9.1V148c0,5,4,9.1,9.1,9.1h63.3c5,0,9.1-4,9.1-9.1
				C222.2,143,218.2,139,213.3,139z"/>
			<path class="st8" d="M150,3.5C70.2,3.5,5.5,68.2,5.5,148S70.2,292.5,150,292.5S294.5,227.8,294.5,148S229.8,3.5,150,3.5z
				 M150,265.5c-64.7,0-117.5-52.6-117.5-117.5C32.5,83.3,85.2,30.5,150,30.5S267.5,83.2,267.5,148
				C267.5,212.7,214.7,265.5,150,265.5z"/>
		</g>
		<g class="st0">
			<path class="st8" d="M275.9,39.6H25.1c-10.6,0-19.6,8.6-19.6,19.3v178.5c0,10.6,8.9,18.9,19.6,18.9h250.8
				c10.6,0,18.6-8.3,18.6-18.9V58.9C294.5,48.1,286.5,39.6,275.9,39.6z M71.4,50.6c3.9,0,7,3.2,7,7s-3.2,7-7,7s-7-3.2-7-7
				S67.6,50.6,71.4,50.6z M51.1,50.6c3.9,0,7,3.2,7,7s-3.2,7-7,7s-7-3.2-7-7S47.3,50.6,51.1,50.6z M30.9,50.6c3.9,0,7,3.2,7,7
				s-3.2,7-7,7s-7-3.2-7-7S27.1,50.6,30.9,50.6z M277,238.3c0,0.3,0.1,0.5-0.2,0.5h-0.5H23.9H23v-0.5V76.8v-0.5
				c0-0.3,0.7-0.5,0.9-0.5h252.9c0.3,0,0.2,0.2,0.2,0.5V238.3L277,238.3z M270.3,64.8h-76.6c-3.9,0-7-3.2-7-7.1s3.2-7.1,7-7.1h76.6
				c3.9,0,7,3.2,7,7.1S274.1,64.8,270.3,64.8z"/>
			<g class="st4">
				<path class="st9" d="M49.2,119.5h76.6c3.9,0,7-3.2,7-7.1s-3.2-7.1-7-7.1H49.2c-3.9,0-7,3.2-7,7.1
					C42.1,116.4,45.2,119.5,49.2,119.5z"/>
				<path class="st9" d="M125.8,129.4H49.2c-3.9,0-7,3.2-7,7.1c0,3.9,3.2,7.1,7,7.1h76.6c3.9,0,7-3.2,7-7.1
					C132.8,132.6,129.6,129.4,125.8,129.4z"/>
				<path class="st9" d="M125.8,153.5H49.2c-3.9,0-7,3.2-7,7.1s3.2,7.1,7,7.1h76.6c3.9,0,7-3.2,7-7.1S129.6,153.5,125.8,153.5z"/>
				<path class="st9" d="M125.8,177.6H49.2c-3.9,0-7,3.2-7,7.1s3.2,7.1,7,7.1h76.6c3.9,0,7-3.2,7-7.1S129.6,177.6,125.8,177.6z"/>
			</g>
			<path class="st8" d="M245,103.1h-81c-7.6,0-14,6.1-14,13.7v0.5v80.5v0.5c0,7.2,6.2,13.1,13.5,13.1h0.5h80.5h0.5
				c7.6,0,13.4-6.1,13.4-13.7v-81C258.4,109.2,252.6,103.1,245,103.1z"/>
		</g>
		<rect x="106" class="st9" width="90" height="300"/>
	</g>
</g>
</svg>
